<svg width="200" height="200" viewBox="0 0 200 200" fill="none" xmlns="http://www.w3.org/2000/svg">
  <rect width="200" height="200" fill="#F5F5F5"/>
  <path d="M100 50C83.4315 50 70 63.4315 70 80V140C70 156.569 83.4315 170 100 170C116.569 170 130 156.569 130 140V80C130 63.4315 116.569 50 100 50Z" fill="#E0E0E0" stroke="#BDBDBD" stroke-width="2"/>
  <path d="M70 90H130" stroke="#BDBDBD" stroke-width="2"/>
  <path d="M100 50V170" stroke="#BDBDBD" stroke-width="2" stroke-dasharray="4 4"/>
  <path d="M85 60C85 60 85 90 85 100C85 110 75 120 75 130C75 140 85 150 95 150C105 150 105 140 105 140" stroke="#9CA3AF" stroke-width="10" stroke-linecap="round"/>
  <path d="M105 60C105 60 105 90 105 100C105 110 115 120 115 130C115 140 105 150 95 150" stroke="#9CA3AF" stroke-width="10" stroke-linecap="round"/>
  <path d="M115 60C115 60 115 90 115 100C115 110 125 120 125 130C125 140 115 150 105 150" stroke="#9CA3AF" stroke-width="10" stroke-linecap="round"/>
</svg>
