<svg width="40" height="40" viewBox="0 0 40 40" fill="none" xmlns="http://www.w3.org/2000/svg">
  <path d="M33.3333 11.6667H28.3333V6.66667H5.00001C3.15834 6.66667 1.66667 8.15834 1.66667 10V28.3333H5.00001C5.00001 31.1 7.23334 33.3333 10 33.3333C12.7667 33.3333 15 31.1 15 28.3333H25C25 31.1 27.2333 33.3333 30 33.3333C32.7667 33.3333 35 31.1 35 28.3333H38.3333V20L33.3333 11.6667ZM10 30C8.90001 30 8.00001 29.1 8.00001 28C8.00001 26.9 8.90001 26 10 26C11.1 26 12 26.9 12 28C12 29.1 11.1 30 10 30ZM32.5 15L35.8333 20H28.3333V15H32.5ZM30 30C28.9 30 28 29.1 28 28C28 26.9 28.9 26 30 26C31.1 26 32 26.9 32 28C32 29.1 31.1 30 30 30Z" fill="black"/>
</svg> 