<?xml version="1.0" encoding="UTF-8" standalone="no"?>
<svg width="416" height="276" viewBox="0 0 416 276" fill="none" xmlns="http://www.w3.org/2000/svg">
  <path d="M204.5 0H103C72.3 0 44.8 11.9 27.5 29.2C9.2 47.5 0 73.1 0 99.5C0 130.2 9.2 157.7 27.5 175C44.8 193.3 72.3 204.5 103 204.5H152.7V120.8H103C90.1 120.8 76.2 116.2 68 108C58.9 98.9 54.3 87 54.3 74.1C54.3 61.2 58.9 48.3 68 40.1C77.1 30 89 26.4 103 26.4H204.5V0Z" fill="#006CFF"/>
  <path d="M359.7 0H257.2V26.4H359.7C372.6 26.4 386.5 31 394.7 39.2C403.8 49.3 408.4 61.2 408.4 74.1C408.4 87 403.8 99.9 394.7 108.1C385.6 118.2 373.7 121.8 359.7 121.8H257.2V204.5H359.7C390.4 204.5 417.9 192.6 435.2 175.3C453.5 157 462.7 131.4 462.7 105C462.7 74.3 453.5 46.8 435.2 29.5C417.9 11.2 389.5 0 359.7 0Z" fill="#006CFF"/>
  <path d="M62.7 276H0V205.4L62.7 276Z" fill="#006CFF"/>
  <path d="M101.9 276H204.5V249.6H134.1L101.9 276Z" fill="#006CFF"/>
  <path d="M154.5 237.7L202.7 205.4H134.1L154.5 237.7Z" fill="#006CFF"/>
  <path d="M307.3 275.9H354.4L416 205.4H358.1L307.3 275.9Z" fill="#006CFF"/>
  <path d="M256.4 205.4V275.9H316L256.4 205.4Z" fill="#006CFF"/>
</svg>
