<svg xmlns="http://www.w3.org/2000/svg" viewBox="0 0 32 32" width="32" height="32">
  <rect width="32" height="32" rx="4" fill="#0080FF"/>
  <g fill="#FFFFFF">
    <!-- R -->
    <path d="M8,8 h6 a3,3 0 0 1 3,3 v0 a3,3 0 0 1 -3,3 h-2 l3,5 h-5 l-2,-5 v5 h-4 v-11 z M11,11 a1,1 0 0 0 1,-1 v0 a1,1 0 0 0 -1,-1 h-0 v2 z" />
    <!-- S -->
    <path d="M18,8 h6 a3,3 0 0 1 3,3 v0 a3,3 0 0 1 -3,3 h-2 a3,3 0 0 1 3,3 v0 a3,3 0 0 1 -3,3 h-6 v-3 h4 a1,1 0 0 0 1,-1 v0 a1,1 0 0 0 -1,-1 h-2 a3,3 0 0 1 -3,-3 v0 a3,3 0 0 1 3,-3 h6 v3 h-4 a1,1 0 0 0 -1,1 v0 a1,1 0 0 0 1,1 h2 z" />
  </g>
</svg> 