<svg xmlns="http://www.w3.org/2000/svg" viewBox="0 0 32 32" width="32" height="32">
  <rect width="32" height="32" rx="4" fill="#0080FF"/>
  <g fill="#FFFFFF">
    <!-- R -->
    <path d="M6,6 h6 a3,3 0 0 1 3,3 v0 a3,3 0 0 1 -3,3 l3,3 h-3 l-3,-3 h-0.5 v3 h-2.5 z M8.5,8.5 v1 h3 a0.5,0.5 0 0 0 0.5,-0.5 v0 a0.5,0.5 0 0 0 -0.5,-0.5 z" />
    <!-- S -->
    <path d="M6,16 h6 a3,3 0 0 1 3,3 v0 a3,3 0 0 1 -3,3 h-6 v-2 h5.5 a0.5,0.5 0 0 0 0.5,-0.5 v0 a0.5,0.5 0 0 0 -0.5,-0.5 h-3 a3,3 0 0 1 -3,-3 v0 a3,3 0 0 1 3,-3 h6 v2 h-5.5 a0.5,0.5 0 0 0 -0.5,0.5 v0 a0.5,0.5 0 0 0 0.5,0.5 h3 a3,3 0 0 1 3,3 v0 a3,3 0 0 1 -3,3 h-6 z" />
  </g>
</svg> 