<svg xmlns="http://www.w3.org/2000/svg" viewBox="0 0 100 40" width="100" height="40">
  <g fill="#0066FF">
    <!-- R -->
    <path d="M5,5 h15 a7,7 0 0 1 7,7 v0 a7,7 0 0 1 -7,7 l7,7 h-8 l-6,-7 h-1 v7 h-7 z M12,12 v2 h7 a1,1 0 0 0 1,-1 v0 a1,1 0 0 0 -1,-1 z" />
    <!-- E -->
    <path d="M30,5 h18 v6 h-11 v2 h9 v5 h-9 v2 h11 v6 h-18 z" />
    <!-- S -->
    <path d="M5,26 h15 a7,7 0 0 1 7,7 v0 a7,7 0 0 1 -7,7 h-15 v-6 h14 a1,1 0 0 0 1,-1 v0 a1,1 0 0 0 -1,-1 h-8 a7,7 0 0 1 -7,-7 v0 a7,7 0 0 1 7,-7 h15 v6 h-14 a1,1 0 0 0 -1,1 v0 a1,1 0 0 0 1,1 h8 a7,7 0 0 1 7,7 v0 a7,7 0 0 1 -7,7 h-15 z" />
    <!-- H -->
    <path d="M30,26 h7 v5 h6 v-5 h7 v14 h-7 v-5 h-6 v5 h-7 z" />
    <!-- I -->
    <path d="M53,26 h7 v14 h-7 z" />
    <!-- P -->
    <path d="M63,26 h15 a7,7 0 0 1 7,7 v0 a7,7 0 0 1 -7,7 h-8 v0 h-7 z M70,32 v2 h7 a1,1 0 0 0 1,-1 v0 a1,1 0 0 0 -1,-1 z" />
  </g>
</svg> 