<svg xmlns="http://www.w3.org/2000/svg" viewBox="0 0 120 40" width="120" height="40">
  <g fill="#0080FF">
    <!-- R -->
    <path d="M10,8 h12 a6,6 0 0 1 6,6 v0 a6,6 0 0 1 -6,6 h-4 l6,10 h-10 l-4,-10 v10 h-8 v-22 z M18,14 a2,2 0 0 0 2,-2 v0 a2,2 0 0 0 -2,-2 h-0 v4 z" />
    <!-- E -->
    <path d="M32,8 h20 v6 h-12 v2 h10 v6 h-10 v2 h12 v6 h-20 z" />
    
    <!-- S -->
    <path d="M60,8 h12 a6,6 0 0 1 6,6 v0 a6,6 0 0 1 -6,6 h-4 a6,6 0 0 1 6,6 v0 a6,6 0 0 1 -6,6 h-12 v-6 h8 a2,2 0 0 0 2,-2 v0 a2,2 0 0 0 -2,-2 h-4 a6,6 0 0 1 -6,-6 v0 a6,6 0 0 1 6,-6 h12 v6 h-8 a2,2 0 0 0 -2,2 v0 a2,2 0 0 0 2,2 h4 z" />
    
    <!-- H -->
    <path d="M82,8 h8 v8 h8 v-8 h8 v22 h-8 v-8 h-8 v8 h-8 z" />
    
    <!-- I -->
    <path d="M110,8 h8 v22 h-8 z" />
  </g>
</svg> 