<svg xmlns="http://www.w3.org/2000/svg" width="100" height="40" viewBox="0 0 100 40" fill="none">
  <path d="M18.75 7.5H31.25V12.5H18.75V7.5Z" fill="#4F46E5"/>
  <path d="M18.75 15H31.25V20H18.75V15Z" fill="#4F46E5"/>
  <path d="M6.25 7.5H16.25V32.5H6.25V7.5Z" fill="#FFFFFF"/>
  <path d="M33.75 7.5H43.75V32.5H33.75V7.5Z" fill="#FFFFFF"/>
  <path d="M18.75 22.5H31.25V27.5H18.75V22.5Z" fill="#4F46E5"/>
  <path d="M55 15V30H51.25V15H46.25V11.25H60V15H55Z" fill="#FFFFFF"/>
  <path d="M62.5 11.25H66.25V18.75H75V11.25H78.75V30H75V22.5H66.25V30H62.5V11.25Z" fill="#FFFFFF"/>
  <path d="M81.25 11.25H85V30H81.25V11.25Z" fill="#FFFFFF"/>
  <path d="M87.5 11.25H98.75V15H91.25V18.75H97.5V22.5H91.25V26.25H98.75V30H87.5V11.25Z" fill="#FFFFFF"/>
</svg> 