<svg width="800" height="600" viewBox="0 0 800 600" xmlns="http://www.w3.org/2000/svg">
  <rect width="800" height="600" fill="#f0f0f0"/>
  <rect x="100" y="150" width="600" height="200" rx="10" fill="#ffb6c1"/>
  
  <!-- Клавиши -->
  <g fill="#ffffff" stroke="#e0e0e0" stroke-width="2">
    <rect x="130" y="180" width="40" height="40" rx="5"/>
    <rect x="180" y="180" width="40" height="40" rx="5"/>
    <rect x="230" y="180" width="40" height="40" rx="5"/>
    <rect x="280" y="180" width="40" height="40" rx="5"/>
    <rect x="330" y="180" width="40" height="40" rx="5"/>
    <rect x="380" y="180" width="40" height="40" rx="5"/>
    <rect x="430" y="180" width="40" height="40" rx="5"/>
    <rect x="480" y="180" width="40" height="40" rx="5"/>
    <rect x="530" y="180" width="40" height="40" rx="5"/>
    <rect x="580" y="180" width="40" height="40" rx="5"/>
    <rect x="630" y="180" width="40" height="40" rx="5"/>
    
    <rect x="150" y="230" width="40" height="40" rx="5"/>
    <rect x="200" y="230" width="40" height="40" rx="5"/>
    <rect x="250" y="230" width="40" height="40" rx="5"/>
    <rect x="300" y="230" width="40" height="40" rx="5"/>
    <rect x="350" y="230" width="40" height="40" rx="5"/>
    <rect x="400" y="230" width="40" height="40" rx="5"/>
    <rect x="450" y="230" width="40" height="40" rx="5"/>
    <rect x="500" y="230" width="40" height="40" rx="5"/>
    <rect x="550" y="230" width="40" height="40" rx="5"/>
    <rect x="600" y="230" width="40" height="40" rx="5"/>
    
    <rect x="180" y="280" width="40" height="40" rx="5"/>
    <rect x="230" y="280" width="40" height="40" rx="5"/>
    <rect x="280" y="280" width="40" height="40" rx="5"/>
    <rect x="330" y="280" width="40" height="40" rx="5"/>
    <rect x="380" y="280" width="40" height="40" rx="5"/>
    <rect x="430" y="280" width="40" height="40" rx="5"/>
    <rect x="480" y="280" width="40" height="40" rx="5"/>
    <rect x="530" y="280" width="40" height="40" rx="5"/>
    <rect x="580" y="280" width="40" height="40" rx="5"/>
  </g>
  
  <!-- Нижний ряд и пробел -->
  <rect x="220" y="330" width="360" height="40" rx="5" fill="#ffffff" stroke="#e0e0e0" stroke-width="2"/>
  
  <!-- Надпись -->
  <text x="400" y="400" font-family="Arial" font-size="24" text-anchor="middle" fill="#333333">
    Leopold FC750R BT Light Pink (вид сверху)
  </text>
  <text x="400" y="440" font-family="Arial" font-size="16" text-anchor="middle" fill="#666666">
    Изображение 1
  </text>
</svg> 